# Generated with liteGL.js by Javi Agenjo

v 0.2223 0.1635 -0.0387
v 0.2307 0.1200 -0.1852
v 0.1447 0.1635 -0.1732
v 0.2307 0.1200 -0.1852
v 0.2223 0.1635 -0.0387
v 0.2757 0.1200 -0.1072
v 0.1447 0.1635 -0.1732
v 0.2307 0.1200 -0.1852
v 0.2223 0.1635 -0.0387
v 0.2757 0.1200 -0.1072
v 0.2223 0.1635 -0.0387
v 0.2307 0.1200 -0.1852
v 0.0000 0.0000 -0.0520
v -0.1782 0.1526 -0.0069
v -0.0450 0.0000 0.0260
v -0.1782 0.1526 -0.0069
v 0.0000 0.0000 -0.0520
v -0.0950 0.1526 -0.1509
v -0.0450 0.0000 0.0260
v -0.1782 0.1526 -0.0069
v 0.0000 0.0000 -0.0520
v -0.0950 0.1526 -0.1509
v 0.0000 0.0000 -0.0520
v -0.1782 0.1526 -0.0069
v -0.1782 0.1526 -0.0069
v -0.1447 0.1635 -0.1732
v -0.2223 0.1635 -0.0387
v -0.1447 0.1635 -0.1732
v -0.1782 0.1526 -0.0069
v -0.0950 0.1526 -0.1509
v -0.2223 0.1635 -0.0387
v -0.1447 0.1635 -0.1732
v -0.1782 0.1526 -0.0069
v -0.0950 0.1526 -0.1509
v -0.1782 0.1526 -0.0069
v -0.1447 0.1635 -0.1732
v -0.0450 0.1200 0.2924
v 0.0776 0.1635 0.2119
v -0.0776 0.1635 0.2119
v 0.0776 0.1635 0.2119
v -0.0450 0.1200 0.2924
v 0.0450 0.1200 0.2924
v -0.0776 0.1635 0.2119
v 0.0776 0.1635 0.2119
v -0.0450 0.1200 0.2924
v 0.0450 0.1200 0.2924
v -0.0450 0.1200 0.2924
v 0.0776 0.1635 0.2119
v 0.1782 0.1526 -0.0069
v 0.0000 0.0000 -0.0520
v 0.0450 0.0000 0.0260
v 0.0000 0.0000 -0.0520
v 0.1782 0.1526 -0.0069
v 0.0950 0.1526 -0.1509
v 0.0450 0.0000 0.0260
v 0.0000 0.0000 -0.0520
v 0.1782 0.1526 -0.0069
v 0.0950 0.1526 -0.1509
v 0.1782 0.1526 -0.0069
v 0.0000 0.0000 -0.0520
v 0.1782 0.1526 -0.0069
v 0.1447 0.1635 -0.1732
v 0.0950 0.1526 -0.1509
v 0.1447 0.1635 -0.1732
v 0.1782 0.1526 -0.0069
v 0.2223 0.1635 -0.0387
v 0.0950 0.1526 -0.1509
v 0.1447 0.1635 -0.1732
v 0.1782 0.1526 -0.0069
v 0.2223 0.1635 -0.0387
v 0.1782 0.1526 -0.0069
v 0.1447 0.1635 -0.1732
v -0.0832 0.1526 0.1577
v 0.0450 0.0000 0.0260
v -0.0450 0.0000 0.0260
v 0.0450 0.0000 0.0260
v -0.0832 0.1526 0.1577
v 0.0832 0.1526 0.1577
v -0.0450 0.0000 0.0260
v 0.0450 0.0000 0.0260
v -0.0832 0.1526 0.1577
v 0.0832 0.1526 0.1577
v -0.0832 0.1526 0.1577
v 0.0450 0.0000 0.0260
v -0.0776 0.1635 0.2119
v 0.0832 0.1526 0.1577
v -0.0832 0.1526 0.1577
v 0.0832 0.1526 0.1577
v -0.0776 0.1635 0.2119
v 0.0776 0.1635 0.2119
v -0.0832 0.1526 0.1577
v 0.0832 0.1526 0.1577
v -0.0776 0.1635 0.2119
v 0.0776 0.1635 0.2119
v -0.0776 0.1635 0.2119
v 0.0832 0.1526 0.1577
v -0.2223 0.1635 -0.0387
v -0.2307 0.1200 -0.1852
v -0.2757 0.1200 -0.1072
v -0.2307 0.1200 -0.1852
v -0.2223 0.1635 -0.0387
v -0.1447 0.1635 -0.1732
v -0.2757 0.1200 -0.1072
v -0.2307 0.1200 -0.1852
v -0.2223 0.1635 -0.0387
v -0.1447 0.1635 -0.1732
v -0.2223 0.1635 -0.0387
v -0.2307 0.1200 -0.1852

vn 0.8080 9.9560 -0.4660
vn 4.1180 8.7970 -2.3780
vn 0.8080 9.9560 -0.4660
vn 4.1180 8.7970 -2.3780
vn 0.8080 9.9560 -0.4660
vn 4.1180 8.7970 -2.3780
vn -0.8080 -9.9560 0.4660
vn -4.1180 -8.7970 2.3780
vn -0.8080 -9.9560 0.4660
vn -4.1180 -8.7970 2.3780
vn -0.8080 -9.9560 0.4660
vn -4.1180 -8.7970 2.3780
vn 6.5550 6.5350 3.7850
vn 4.2890 8.6880 2.4760
vn 6.5550 6.5350 3.7850
vn 4.2890 8.6880 2.4760
vn 6.5550 6.5350 3.7850
vn 4.2880 8.6880 2.4760
vn -6.5550 -6.5350 -3.7850
vn -4.2890 -8.6880 -2.4760
vn -6.5550 -6.5350 -3.7850
vn -4.2880 -8.6880 -2.4760
vn -6.5550 -6.5350 -3.7850
vn -4.2890 -8.6880 -2.4760
vn 4.2890 8.6880 2.4760
vn -0.8080 9.9560 -0.4660
vn -0.8070 9.9560 -0.4660
vn -0.8080 9.9560 -0.4660
vn 4.2890 8.6880 2.4760
vn 4.2890 8.6880 2.4760
vn 0.8080 -9.9560 0.4660
vn 0.8070 -9.9560 0.4660
vn -4.2890 -8.6880 -2.4760
vn -4.2890 -8.6880 -2.4760
vn -4.2890 -8.6880 -2.4760
vn 0.8070 -9.9560 0.4660
vn 0.0000 8.7970 4.7550
vn 0.0000 9.9560 0.9330
vn 0.0000 9.9560 0.9330
vn 0.0000 9.9560 0.9330
vn 0.0000 8.7970 4.7550
vn 0.0000 8.7970 4.7550
vn 0.0000 -9.9560 -0.9330
vn 0.0000 -9.9560 -0.9330
vn 0.0000 -8.7970 -4.7550
vn 0.0000 -8.7970 -4.7550
vn 0.0000 -8.7970 -4.7550
vn 0.0000 -9.9560 -0.9330
vn -4.2890 8.6880 2.4760
vn -6.5550 6.5350 3.7850
vn -6.5550 6.5350 3.7850
vn -6.5550 6.5350 3.7850
vn -4.2890 8.6880 2.4760
vn -4.2880 8.6880 2.4760
vn 6.5550 -6.5350 -3.7850
vn 6.5550 -6.5350 -3.7850
vn 4.2890 -8.6880 -2.4760
vn 4.2880 -8.6880 -2.4760
vn 4.2890 -8.6880 -2.4760
vn 6.5550 -6.5350 -3.7850
vn -4.2890 8.6880 2.4760
vn 0.8080 9.9560 -0.4660
vn -4.2890 8.6880 2.4760
vn 0.8080 9.9560 -0.4660
vn -4.2890 8.6880 2.4760
vn 0.8070 9.9560 -0.4660
vn 4.2890 -8.6880 -2.4760
vn -0.8070 -9.9560 0.4660
vn 4.2890 -8.6880 -2.4760
vn -0.8080 -9.9560 0.4660
vn 4.2890 -8.6880 -2.4760
vn -0.8070 -9.9560 0.4660
vn 0.0000 8.6880 -4.9520
vn 0.0000 6.5350 -7.5690
vn 0.0000 6.5350 -7.5690
vn 0.0000 6.5350 -7.5690
vn 0.0000 8.6880 -4.9520
vn 0.0000 8.6880 -4.9520
vn 0.0000 -6.5350 7.5690
vn 0.0000 -6.5350 7.5690
vn 0.0000 -8.6880 4.9520
vn 0.0000 -8.6880 4.9520
vn 0.0000 -8.6880 4.9520
vn 0.0000 -6.5350 7.5690
vn 0.0000 9.9560 0.9320
vn 0.0000 8.6880 -4.9520
vn 0.0000 8.6880 -4.9520
vn 0.0000 8.6880 -4.9520
vn 0.0000 9.9560 0.9320
vn 0.0000 9.9560 0.9320
vn 0.0000 -8.6880 4.9520
vn 0.0000 -8.6880 4.9520
vn 0.0000 -9.9560 -0.9320
vn 0.0000 -9.9560 -0.9320
vn 0.0000 -9.9560 -0.9320
vn 0.0000 -8.6880 4.9520
vn -0.8080 9.9560 -0.4660
vn -4.1180 8.7970 -2.3780
vn -4.1180 8.7970 -2.3780
vn -4.1180 8.7970 -2.3780
vn -0.8080 9.9560 -0.4660
vn -0.8080 9.9560 -0.4660
vn 4.1180 -8.7970 2.3780
vn 4.1180 -8.7970 2.3780
vn 0.8080 -9.9560 0.4660
vn 0.8080 -9.9560 0.4660
vn 0.8080 -9.9560 0.4660
vn 4.1180 -8.7970 2.3780

vt 0.5000 0.5000  0.0000
vt 0.5000 0.5000  0.0000
vt 0.5000 0.5000  0.0000
vt 0.5000 0.5000  0.0000
vt 0.5000 0.5000  0.0000
vt 0.5000 0.5000  0.0000
vt 0.5000 0.5000  0.0000
vt 0.5000 0.5000  0.0000
vt 0.5000 0.5000  0.0000
vt 0.5000 0.5000  0.0000
vt 0.5000 0.5000  0.0000
vt 0.5000 0.5000  0.0000
vt 0.5000 0.5000  0.0000
vt 0.5000 0.5000  0.0000
vt 0.5000 0.5000  0.0000
vt 0.5000 0.5000  0.0000
vt 0.5000 0.5000  0.0000
vt 0.5000 0.5000  0.0000
vt 0.5000 0.5000  0.0000
vt 0.5000 0.5000  0.0000
vt 0.5000 0.5000  0.0000
vt 0.5000 0.5000  0.0000
vt 0.5000 0.5000  0.0000
vt 0.5000 0.5000  0.0000
vt 0.5000 0.5000  0.0000
vt 0.5000 0.5000  0.0000
vt 0.5000 0.5000  0.0000
vt 0.5000 0.5000  0.0000
vt 0.5000 0.5000  0.0000
vt 0.5000 0.5000  0.0000
vt 0.5000 0.5000  0.0000
vt 0.5000 0.5000  0.0000
vt 0.5000 0.5000  0.0000
vt 0.5000 0.5000  0.0000
vt 0.5000 0.5000  0.0000
vt 0.5000 0.5000  0.0000
vt 0.5000 0.5000  0.0000
vt 0.5000 0.5000  0.0000
vt 0.5000 0.5000  0.0000
vt 0.5000 0.5000  0.0000
vt 0.5000 0.5000  0.0000
vt 0.5000 0.5000  0.0000
vt 0.5000 0.5000  0.0000
vt 0.5000 0.5000  0.0000
vt 0.5000 0.5000  0.0000
vt 0.5000 0.5000  0.0000
vt 0.5000 0.5000  0.0000
vt 0.5000 0.5000  0.0000
vt 0.5000 0.5000  0.0000
vt 0.5000 0.5000  0.0000
vt 0.5000 0.5000  0.0000
vt 0.5000 0.5000  0.0000
vt 0.5000 0.5000  0.0000
vt 0.5000 0.5000  0.0000
vt 0.5000 0.5000  0.0000
vt 0.5000 0.5000  0.0000
vt 0.5000 0.5000  0.0000
vt 0.5000 0.5000  0.0000
vt 0.5000 0.5000  0.0000
vt 0.5000 0.5000  0.0000
vt 0.5000 0.5000  0.0000
vt 0.5000 0.5000  0.0000
vt 0.5000 0.5000  0.0000
vt 0.5000 0.5000  0.0000
vt 0.5000 0.5000  0.0000
vt 0.5000 0.5000  0.0000
vt 0.5000 0.5000  0.0000
vt 0.5000 0.5000  0.0000
vt 0.5000 0.5000  0.0000
vt 0.5000 0.5000  0.0000
vt 0.5000 0.5000  0.0000
vt 0.5000 0.5000  0.0000
vt 0.5000 0.5000  0.0000
vt 0.5000 0.5000  0.0000
vt 0.5000 0.5000  0.0000
vt 0.5000 0.5000  0.0000
vt 0.5000 0.5000  0.0000
vt 0.5000 0.5000  0.0000
vt 0.5000 0.5000  0.0000
vt 0.5000 0.5000  0.0000
vt 0.5000 0.5000  0.0000
vt 0.5000 0.5000  0.0000
vt 0.5000 0.5000  0.0000
vt 0.5000 0.5000  0.0000
vt 0.5000 0.5000  0.0000
vt 0.5000 0.5000  0.0000
vt 0.5000 0.5000  0.0000
vt 0.5000 0.5000  0.0000
vt 0.5000 0.5000  0.0000
vt 0.5000 0.5000  0.0000
vt 0.5000 0.5000  0.0000
vt 0.5000 0.5000  0.0000
vt 0.5000 0.5000  0.0000
vt 0.5000 0.5000  0.0000
vt 0.5000 0.5000  0.0000
vt 0.5000 0.5000  0.0000
vt 0.5000 0.5000  0.0000
vt 0.5000 0.5000  0.0000
vt 0.5000 0.5000  0.0000
vt 0.5000 0.5000  0.0000
vt 0.5000 0.5000  0.0000
vt 0.5000 0.5000  0.0000
vt 0.5000 0.5000  0.0000
vt 0.5000 0.5000  0.0000
vt 0.5000 0.5000  0.0000
vt 0.5000 0.5000  0.0000
vt 0.5000 0.5000  0.0000
vt 0.5000 0.5000  0.0000
g mesh_0
usemtl mat_0
f 1/1/1 2/2/2 3/3/3
f 4/4/4 5/5/5 6/6/6
f 7/7/7 8/8/8 9/9/9
f 10/10/10 11/11/11 12/12/12
f 13/13/13 14/14/14 15/15/15
f 16/16/16 17/17/17 18/18/18
f 19/19/19 20/20/20 21/21/21
f 22/22/22 23/23/23 24/24/24
f 25/25/25 26/26/26 27/27/27
f 28/28/28 29/29/29 30/30/30
f 31/31/31 32/32/32 33/33/33
f 34/34/34 35/35/35 36/36/36
f 37/37/37 38/38/38 39/39/39
f 40/40/40 41/41/41 42/42/42
f 43/43/43 44/44/44 45/45/45
f 46/46/46 47/47/47 48/48/48
f 49/49/49 50/50/50 51/51/51
f 52/52/52 53/53/53 54/54/54
f 55/55/55 56/56/56 57/57/57
f 58/58/58 59/59/59 60/60/60
f 61/61/61 62/62/62 63/63/63
f 64/64/64 65/65/65 66/66/66
f 67/67/67 68/68/68 69/69/69
f 70/70/70 71/71/71 72/72/72
f 73/73/73 74/74/74 75/75/75
f 76/76/76 77/77/77 78/78/78
f 79/79/79 80/80/80 81/81/81
f 82/82/82 83/83/83 84/84/84
f 85/85/85 86/86/86 87/87/87
f 88/88/88 89/89/89 90/90/90
f 91/91/91 92/92/92 93/93/93
f 94/94/94 95/95/95 96/96/96
f 97/97/97 98/98/98 99/99/99
f 100/100/100 101/101/101 102/102/102
f 103/103/103 104/104/104 105/105/105
f 106/106/106 107/107/107 108/108/108