# Blender v2.92.0 OBJ File: ''
# www.blender.org
mtllib Jewel.mtl
o Jewel
v 2.707200 9.805040 -1.245719
v 0.000000 1.910000 0.000000
v 0.326000 9.805040 -3.084479
v 2.381200 9.805039 1.838762
v 0.000000 1.910000 0.000000
v 2.707200 9.805040 -1.245719
v 2.707200 9.805040 -1.245719
v 0.326000 9.805040 -3.084479
v 0.000000 17.700081 0.000003
v 0.000000 17.700081 0.000003
v -2.381200 9.805040 -1.838759
v -2.707200 9.805040 1.245722
v 0.000000 1.910000 0.000000
v -2.381200 9.805040 -1.838759
v 0.326000 9.805040 -3.084479
v -2.381200 9.805040 -1.838759
v 0.000000 1.910000 0.000000
v -2.707200 9.805040 1.245722
v 0.000000 17.700081 0.000003
v -2.707200 9.805040 1.245722
v -0.326000 9.805039 3.084482
v 2.381200 9.805039 1.838762
v -0.326000 9.805039 3.084482
v 0.000000 1.910000 0.000000
v 0.000000 17.700081 0.000003
v 2.381200 9.805039 1.838762
v 2.707200 9.805040 -1.245719
v 2.381200 9.805039 1.838762
v 0.000000 17.700081 0.000003
v -0.326000 9.805039 3.084482
v -0.326000 9.805039 3.084482
v -2.707200 9.805040 1.245722
v 0.000000 1.910000 0.000000
v 0.326000 9.805040 -3.084479
v -2.381200 9.805040 -1.838759
v 0.000000 17.700081 0.000003
vt 0.500000 0.500000
vt 0.500000 0.500000
vt 0.500000 0.500000
vt 0.500000 0.500000
vt 0.500000 0.500000
vt 0.500000 0.500000
vt 0.500000 0.500000
vt 0.500000 0.500000
vt 0.500000 0.500000
vt 0.500000 0.500000
vt 0.500000 0.500000
vt 0.500000 0.500000
vt 0.500000 0.500000
vt 0.500000 0.500000
vt 0.500000 0.500000
vt 0.500000 0.500000
vt 0.500000 0.500000
vt 0.500000 0.500000
vt 0.500000 0.500000
vt 0.500000 0.500000
vt 0.500000 0.500000
vt 0.500000 0.500000
vt 0.500000 0.500000
vt 0.500000 0.500000
vt 0.500000 0.500000
vt 0.500000 0.500000
vt 0.500000 0.500000
vt 0.500000 0.500000
vt 0.500000 0.500000
vt 0.500000 0.500000
vt 0.500000 0.500000
vt 0.500000 0.500000
vt 0.500000 0.500000
vt 0.500000 0.500000
vt 0.500000 0.500000
vt 0.500000 0.500000
vn 0.5796 -0.3172 -0.7506
vn 0.9459 -0.3086 0.1000
vn 0.5796 0.3172 -0.7506
vn -0.9459 0.3086 -0.1000
vn -0.3961 -0.3199 -0.8607
vn -0.9459 -0.3086 -0.1000
vn -0.5796 0.3172 0.7506
vn 0.3961 -0.3199 0.8607
vn 0.9459 0.3086 0.1000
vn 0.3961 0.3199 0.8607
vn -0.5796 -0.3172 0.7506
vn -0.3961 0.3199 -0.8607
usemtl mat_9
s 1
f 1/1/1 2/2/1 3/3/1
f 4/4/2 5/5/2 6/6/2
f 7/7/3 8/8/3 9/9/3
f 10/10/4 11/11/4 12/12/4
f 13/13/5 14/14/5 15/15/5
f 16/16/6 17/17/6 18/18/6
f 19/19/7 20/20/7 21/21/7
f 22/22/8 23/23/8 24/24/8
f 25/25/9 26/26/9 27/27/9
f 28/28/10 29/29/10 30/30/10
f 31/31/11 32/32/11 33/33/11
f 34/34/12 35/35/12 36/36/12
