# Blender v2.92.0 OBJ File: ''
# www.blender.org
mtllib Rock.mtl
o Rock
v 16.325001 0.000002 -9.510000
v 14.575000 3.050000 2.130000
v 16.325001 -0.000001 3.140000
v 14.575000 3.050000 2.130000
v 16.325001 0.000002 -9.510000
v 12.820000 6.105000 -1.189999
v 12.820000 6.105000 -1.189999
v 16.325001 0.000002 -9.510000
v 12.820000 6.105001 -7.484999
v -1.845000 13.375003 -12.154998
v -1.955000 6.690002 -15.154999
v -4.610000 13.375003 -13.754997
v 5.370000 6.104999 5.415001
v 4.145000 -0.000001 8.755000
v 5.370000 -0.000002 9.465000
v 4.145000 -0.000001 8.755000
v 5.370000 6.104999 5.415001
v 3.170000 6.105000 4.145001
v 5.370000 3.050002 -13.809999
v 16.325001 0.000002 -9.510000
v 5.370000 0.000003 -15.835001
v 16.325001 0.000002 -9.510000
v 5.370000 3.050002 -13.809999
v 12.820000 6.105001 -7.484999
v 12.820000 6.105001 -7.484999
v 5.370000 3.050002 -13.809999
v 9.094999 6.105001 -9.634999
v -12.585001 19.999998 8.970003
v -15.775000 0.000000 -0.690000
v -15.775000 -0.000002 10.809999
v -15.775000 0.000000 -0.690000
v -12.585001 19.999998 8.970003
v -12.585001 20.000000 3.245003
v -15.775000 0.000000 -0.690000
v -12.585001 20.000000 3.245003
v -14.180000 10.000000 0.230002
v 9.094999 6.105001 -9.634999
v 5.370000 3.050002 -13.809999
v 1.645000 6.105001 -9.634999
v 4.145000 -0.000001 8.755000
v 0.960000 19.999998 8.970003
v 4.145000 -0.000002 10.809999
v 0.960000 19.999998 8.970003
v 4.145000 -0.000001 8.755000
v 0.960000 20.000000 1.150003
v 0.960000 20.000000 1.150003
v 4.145000 -0.000001 8.755000
v 3.170000 6.105000 4.145001
v 0.960000 20.000000 1.150003
v 3.170000 6.105000 4.145001
v 3.170000 6.105000 2.110001
v 0.960000 20.000000 1.150003
v 3.170000 6.105000 2.110001
v 2.550000 10.000000 0.230002
v -9.650001 13.375003 -13.754997
v -1.145000 0.000003 -16.559999
v -11.265000 0.000003 -16.559999
v -1.145000 0.000003 -16.559999
v -9.650001 13.375003 -13.754997
v -1.955000 6.690002 -15.154999
v -1.955000 6.690002 -15.154999
v -9.650001 13.375003 -13.754997
v -4.610000 13.375003 -13.754997
v -11.370000 13.375003 -10.774998
v -14.710000 6.690001 -7.794999
v -11.370000 13.375002 -4.814998
v -5.815000 9.999997 14.720002
v -15.775000 -0.000002 10.809999
v -5.815000 -0.000003 16.559999
v -15.775000 -0.000002 10.809999
v -5.815000 9.999997 14.720002
v -12.585001 19.999998 8.970003
v -0.700000 6.105000 -2.364999
v 0.675000 13.375002 -7.794998
v -2.600000 13.375001 -2.124998
v 0.675000 13.375002 -7.794998
v -0.700000 6.105000 -2.364999
v 2.435000 6.105001 -7.794999
v 0.795000 0.000002 -13.190000
v 5.370000 3.050002 -13.809999
v 5.370000 0.000003 -15.835001
v 5.370000 3.050002 -13.809999
v 0.795000 0.000002 -13.190000
v 1.440000 6.105001 -9.514999
v 5.370000 3.050002 -13.809999
v 1.440000 6.105001 -9.514999
v 1.645000 6.105001 -9.634999
v 1.440000 6.105001 -9.514999
v 0.675000 13.375002 -7.794998
v 2.435000 6.105001 -7.794999
v 0.675000 13.375002 -7.794998
v 1.440000 6.105001 -9.514999
v -1.845000 13.375003 -12.154998
v -1.845000 13.375003 -12.154998
v 1.440000 6.105001 -9.514999
v 0.795000 0.000002 -13.190000
v -1.845000 13.375003 -12.154998
v 0.795000 0.000002 -13.190000
v -1.955000 6.690002 -15.154999
v -1.955000 6.690002 -15.154999
v 0.795000 0.000002 -13.190000
v -1.145000 0.000003 -16.559999
v -5.815000 20.000000 -2.759997
v -2.600000 13.375001 -2.124998
v -5.815000 13.375002 -3.979998
v 0.960000 20.000000 1.150003
v -2.600000 13.375001 -2.124998
v -5.815000 20.000000 -2.759997
v 0.610000 6.105000 -1.609999
v -2.600000 13.375001 -2.124998
v 2.550000 10.000000 0.230002
v -2.600000 13.375001 -2.124998
v 0.610000 6.105000 -1.609999
v -0.700000 6.105000 -2.364999
v -5.815000 -0.000003 16.559999
v 0.960000 19.999998 8.970003
v -5.815000 9.999997 14.720002
v -16.325001 0.000001 -7.795000
v -11.370000 13.375003 -10.774998
v -11.265000 0.000003 -16.559999
v -11.265000 0.000003 -16.559999
v -11.370000 13.375003 -10.774998
v -9.650001 13.375003 -13.754997
v -9.200000 19.999998 10.925003
v -12.585001 20.000000 3.245003
v -12.585001 19.999998 8.970003
v -12.585001 20.000000 3.245003
v -9.200000 19.999998 10.925003
v -10.770000 20.000000 0.100003
v -10.770000 20.000000 0.100003
v -9.200000 19.999998 10.925003
v -5.815000 20.000000 -2.759997
v -5.815000 20.000000 -2.759997
v -9.200000 19.999998 10.925003
v -2.430000 19.999998 10.925003
v -5.815000 20.000000 -2.759997
v -2.430000 19.999998 10.925003
v 0.960000 20.000000 1.150003
v 0.960000 20.000000 1.150003
v -2.430000 19.999998 10.925003
v 0.960000 19.999998 8.970003
v 0.610000 6.105000 -1.609999
v 2.435000 6.105001 -7.794999
v -0.700000 6.105000 -2.364999
v 2.435000 6.105001 -7.794999
v 0.610000 6.105000 -1.609999
v 3.170000 6.105000 2.110001
v 9.094999 6.105001 -9.634999
v 2.435000 6.105001 -7.794999
v 3.170000 6.105000 2.110001
v 1.645000 6.105001 -9.634999
v 2.435000 6.105001 -7.794999
v 9.094999 6.105001 -9.634999
v 2.435000 6.105001 -7.794999
v 1.645000 6.105001 -9.634999
v 1.440000 6.105001 -9.514999
v 9.094999 6.105001 -9.634999
v 3.170000 6.105000 2.110001
v 5.370000 6.104999 5.415001
v 5.370000 6.104999 5.415001
v 3.170000 6.105000 2.110001
v 3.170000 6.105000 4.145001
v 9.094999 6.105001 -9.634999
v 5.370000 6.104999 5.415001
v 10.825000 6.105000 2.270001
v 9.094999 6.105001 -9.634999
v 10.825000 6.105000 2.270001
v 12.820000 6.105001 -7.484999
v 12.820000 6.105001 -7.484999
v 10.825000 6.105000 2.270001
v 12.820000 6.105000 -1.189999
v 0.610000 6.105000 -1.609999
v 2.550000 10.000000 0.230002
v 3.170000 6.105000 2.110001
v 14.575000 3.050000 2.130000
v 12.820000 6.105000 -1.189999
v 10.825000 6.105000 2.270001
v -11.265000 0.000003 -16.559999
v -13.115001 0.000000 -2.230000
v -16.325001 0.000001 -7.795000
v -5.815000 -0.000003 16.559999
v -13.115001 0.000000 -2.230000
v -11.265000 0.000003 -16.559999
v -15.775000 -0.000002 10.809999
v -13.115001 0.000000 -2.230000
v -5.815000 -0.000003 16.559999
v -13.115001 0.000000 -2.230000
v -15.775000 -0.000002 10.809999
v -15.775000 0.000000 -0.690000
v -5.815000 -0.000003 16.559999
v -11.265000 0.000003 -16.559999
v -1.145000 0.000003 -16.559999
v -5.815000 -0.000003 16.559999
v -1.145000 0.000003 -16.559999
v 4.145000 -0.000002 10.809999
v 4.145000 -0.000002 10.809999
v -1.145000 0.000003 -16.559999
v 0.795000 0.000002 -13.190000
v 4.145000 -0.000002 10.809999
v 0.795000 0.000002 -13.190000
v 4.145000 -0.000001 8.755000
v 5.370000 0.000003 -15.835001
v 4.145000 -0.000001 8.755000
v 0.795000 0.000002 -13.190000
v 4.145000 -0.000001 8.755000
v 5.370000 0.000003 -15.835001
v 5.370000 -0.000002 9.465000
v 5.370000 -0.000002 9.465000
v 5.370000 0.000003 -15.835001
v 16.325001 0.000002 -9.510000
v 5.370000 -0.000002 9.465000
v 16.325001 0.000002 -9.510000
v 16.325001 -0.000001 3.140000
v -9.650001 13.375001 -1.834998
v -11.370000 13.375003 -10.774998
v -11.370000 13.375002 -4.814998
v -11.370000 13.375003 -10.774998
v -9.650001 13.375001 -1.834998
v -9.650001 13.375003 -13.754997
v -9.650001 13.375003 -13.754997
v -9.650001 13.375001 -1.834998
v -9.535000 13.375001 -1.834998
v -9.650001 13.375003 -13.754997
v -9.535000 13.375001 -1.834998
v -4.610000 13.375003 -13.754997
v -4.610000 13.375003 -13.754997
v -9.535000 13.375001 -1.834998
v -5.815000 13.375002 -3.979998
v -4.610000 13.375003 -13.754997
v -5.815000 13.375002 -3.979998
v -2.600000 13.375001 -2.124998
v -4.610000 13.375003 -13.754997
v -2.600000 13.375001 -2.124998
v -1.845000 13.375003 -12.154998
v -1.845000 13.375003 -12.154998
v -2.600000 13.375001 -2.124998
v 0.675000 13.375002 -7.794998
v -9.200000 19.999998 10.925003
v -5.815000 9.999997 14.720002
v -2.430000 19.999998 10.925003
v -15.775000 0.000000 -0.690000
v -9.675000 13.169999 -1.789998
v -13.115001 0.000000 -2.230000
v -9.675000 13.169999 -1.789998
v -14.180000 10.000000 0.230002
v -10.770000 20.000000 0.100003
v -9.675000 13.169999 -1.789998
v -10.770000 20.000000 0.100003
v -9.535000 13.375001 -1.834998
v -9.650001 13.375001 -1.834998
v -13.115001 0.000000 -2.230000
v -9.675000 13.169999 -1.789998
v -13.115001 0.000000 -2.230000
v -9.650001 13.375001 -1.834998
v -11.370000 13.375002 -4.814998
v -13.115001 0.000000 -2.230000
v -11.370000 13.375002 -4.814998
v -16.325001 0.000001 -7.795000
v -16.325001 0.000001 -7.795000
v -11.370000 13.375002 -4.814998
v -14.710000 6.690001 -7.794999
v 14.575000 3.050000 2.130000
v 5.370000 -0.000002 9.465000
v 16.325001 -0.000001 3.140000
v 5.370000 -0.000002 9.465000
v 14.575000 3.050000 2.130000
v 5.370000 6.104999 5.415001
v 5.370000 6.104999 5.415001
v 14.575000 3.050000 2.130000
v 10.825000 6.105000 2.270001
v -12.585001 19.999998 8.970003
v -5.815000 9.999997 14.720002
v -9.200000 19.999998 10.925003
v 2.550000 10.000000 0.230002
v -2.600000 13.375001 -2.124998
v 0.960000 20.000000 1.150003
v 0.960000 19.999998 8.970003
v -5.815000 -0.000003 16.559999
v 4.145000 -0.000002 10.809999
v -5.815000 9.999997 14.720002
v 0.960000 19.999998 8.970003
v -2.430000 19.999998 10.925003
v -11.370000 13.375003 -10.774998
v -16.325001 0.000001 -7.795000
v -14.710000 6.690001 -7.794999
v -10.770000 20.000000 0.100003
v -14.180000 10.000000 0.230002
v -12.585001 20.000000 3.245003
v -9.675000 13.169999 -1.789998
v -15.775000 0.000000 -0.690000
v -14.180000 10.000000 0.230002
v -9.535000 13.375001 -1.834998
v -10.770000 20.000000 0.100003
v -5.815000 13.375002 -3.979998
v -5.815000 13.375002 -3.979998
v -10.770000 20.000000 0.100003
v -5.815000 20.000000 -2.759997
v -9.650001 13.375001 -1.834998
v -9.675000 13.169999 -1.789998
v -9.535000 13.375001 -1.834998
vt 0.250000 0.500000
vt 0.250000 0.500000
vt 0.250000 0.500000
vt 0.250000 0.500000
vt 0.250000 0.500000
vt 0.250000 0.500000
vt 0.250000 0.500000
vt 0.250000 0.500000
vt 0.250000 0.500000
vt 0.250000 0.500000
vt 0.250000 0.500000
vt 0.250000 0.500000
vt 0.250000 0.500000
vt 0.250000 0.500000
vt 0.250000 0.500000
vt 0.250000 0.500000
vt 0.250000 0.500000
vt 0.250000 0.500000
vt 0.250000 0.500000
vt 0.250000 0.500000
vt 0.250000 0.500000
vt 0.250000 0.500000
vt 0.250000 0.500000
vt 0.250000 0.500000
vt 0.250000 0.500000
vt 0.250000 0.500000
vt 0.250000 0.500000
vt 0.250000 0.500000
vt 0.250000 0.500000
vt 0.250000 0.500000
vt 0.250000 0.500000
vt 0.250000 0.500000
vt 0.250000 0.500000
vt 0.250000 0.500000
vt 0.250000 0.500000
vt 0.250000 0.500000
vt 0.250000 0.500000
vt 0.250000 0.500000
vt 0.250000 0.500000
vt 0.250000 0.500000
vt 0.250000 0.500000
vt 0.250000 0.500000
vt 0.250000 0.500000
vt 0.250000 0.500000
vt 0.250000 0.500000
vt 0.250000 0.500000
vt 0.250000 0.500000
vt 0.250000 0.500000
vt 0.250000 0.500000
vt 0.250000 0.500000
vt 0.250000 0.500000
vt 0.250000 0.500000
vt 0.250000 0.500000
vt 0.250000 0.500000
vt 0.250000 0.500000
vt 0.250000 0.500000
vt 0.250000 0.500000
vt 0.250000 0.500000
vt 0.250000 0.500000
vt 0.250000 0.500000
vt 0.250000 0.500000
vt 0.250000 0.500000
vt 0.250000 0.500000
vt 0.250000 0.500000
vt 0.250000 0.500000
vt 0.250000 0.500000
vt 0.250000 0.500000
vt 0.250000 0.500000
vt 0.250000 0.500000
vt 0.250000 0.500000
vt 0.250000 0.500000
vt 0.250000 0.500000
vt 0.250000 0.500000
vt 0.250000 0.500000
vt 0.250000 0.500000
vt 0.250000 0.500000
vt 0.250000 0.500000
vt 0.250000 0.500000
vt 0.250000 0.500000
vt 0.250000 0.500000
vt 0.250000 0.500000
vt 0.250000 0.500000
vt 0.250000 0.500000
vt 0.250000 0.500000
vt 0.250000 0.500000
vt 0.250000 0.500000
vt 0.250000 0.500000
vt 0.250000 0.500000
vt 0.250000 0.500000
vt 0.250000 0.500000
vt 0.250000 0.500000
vt 0.250000 0.500000
vt 0.250000 0.500000
vt 0.250000 0.500000
vt 0.250000 0.500000
vt 0.250000 0.500000
vt 0.250000 0.500000
vt 0.250000 0.500000
vt 0.250000 0.500000
vt 0.250000 0.500000
vt 0.250000 0.500000
vt 0.250000 0.500000
vt 0.250000 0.500000
vt 0.250000 0.500000
vt 0.250000 0.500000
vt 0.250000 0.500000
vt 0.250000 0.500000
vt 0.250000 0.500000
vt 0.250000 0.500000
vt 0.250000 0.500000
vt 0.250000 0.500000
vt 0.250000 0.500000
vt 0.250000 0.500000
vt 0.250000 0.500000
vt 0.250000 0.500000
vt 0.250000 0.500000
vt 0.250000 0.500000
vt 0.250000 0.500000
vt 0.250000 0.500000
vt 0.250000 0.500000
vt 0.250000 0.500000
vt 0.250000 0.500000
vt 0.250000 0.500000
vt 0.250000 0.500000
vt 0.250000 0.500000
vt 0.250000 0.500000
vt 0.250000 0.500000
vt 0.250000 0.500000
vt 0.250000 0.500000
vt 0.250000 0.500000
vt 0.250000 0.500000
vt 0.250000 0.500000
vt 0.250000 0.500000
vt 0.250000 0.500000
vt 0.250000 0.500000
vt 0.250000 0.500000
vt 0.250000 0.500000
vt 0.250000 0.500000
vt 0.250000 0.500000
vt 0.250000 0.500000
vt 0.250000 0.500000
vt 0.250000 0.500000
vt 0.250000 0.500000
vt 0.250000 0.500000
vt 0.250000 0.500000
vt 0.250000 0.500000
vt 0.250000 0.500000
vt 0.250000 0.500000
vt 0.250000 0.500000
vt 0.250000 0.500000
vt 0.250000 0.500000
vt 0.250000 0.500000
vt 0.250000 0.500000
vt 0.250000 0.500000
vt 0.250000 0.500000
vt 0.250000 0.500000
vt 0.250000 0.500000
vt 0.250000 0.500000
vt 0.250000 0.500000
vt 0.250000 0.500000
vt 0.250000 0.500000
vt 0.250000 0.500000
vt 0.250000 0.500000
vt 0.250000 0.500000
vt 0.250000 0.500000
vt 0.250000 0.500000
vt 0.250000 0.500000
vt 0.250000 0.500000
vt 0.250000 0.500000
vt 0.250000 0.500000
vt 0.250000 0.500000
vt 0.250000 0.500000
vt 0.250000 0.500000
vt 0.250000 0.500000
vt 0.250000 0.500000
vt 0.250000 0.500000
vt 0.250000 0.500000
vt 0.250000 0.500000
vt 0.250000 0.500000
vt 0.250000 0.500000
vt 0.250000 0.500000
vt 0.250000 0.500000
vt 0.250000 0.500000
vt 0.250000 0.500000
vt 0.250000 0.500000
vt 0.250000 0.500000
vt 0.250000 0.500000
vt 0.250000 0.500000
vt 0.250000 0.500000
vt 0.250000 0.500000
vt 0.250000 0.500000
vt 0.250000 0.500000
vt 0.250000 0.500000
vt 0.250000 0.500000
vt 0.250000 0.500000
vt 0.250000 0.500000
vt 0.250000 0.500000
vt 0.250000 0.500000
vt 0.250000 0.500000
vt 0.250000 0.500000
vt 0.250000 0.500000
vt 0.250000 0.500000
vt 0.250000 0.500000
vt 0.250000 0.500000
vt 0.250000 0.500000
vt 0.250000 0.500000
vt 0.250000 0.500000
vt 0.250000 0.500000
vt 0.250000 0.500000
vt 0.250000 0.500000
vt 0.250000 0.500000
vt 0.250000 0.500000
vt 0.250000 0.500000
vt 0.250000 0.500000
vt 0.250000 0.500000
vt 0.250000 0.500000
vt 0.250000 0.500000
vt 0.250000 0.500000
vt 0.250000 0.500000
vt 0.250000 0.500000
vt 0.250000 0.500000
vt 0.250000 0.500000
vt 0.250000 0.500000
vt 0.250000 0.500000
vt 0.250000 0.500000
vt 0.250000 0.500000
vt 0.250000 0.500000
vt 0.250000 0.500000
vt 0.250000 0.500000
vt 0.250000 0.500000
vt 0.250000 0.500000
vt 0.250000 0.500000
vt 0.250000 0.500000
vt 0.250000 0.500000
vt 0.250000 0.500000
vt 0.250000 0.500000
vt 0.250000 0.500000
vt 0.250000 0.500000
vt 0.250000 0.500000
vt 0.250000 0.500000
vt 0.250000 0.500000
vt 0.250000 0.500000
vt 0.250000 0.500000
vt 0.250000 0.500000
vt 0.250000 0.500000
vt 0.250000 0.500000
vt 0.250000 0.500000
vt 0.250000 0.500000
vt 0.250000 0.500000
vt 0.250000 0.500000
vt 0.250000 0.500000
vt 0.250000 0.500000
vt 0.250000 0.500000
vt 0.250000 0.500000
vt 0.250000 0.500000
vt 0.250000 0.500000
vt 0.250000 0.500000
vt 0.250000 0.500000
vt 0.250000 0.500000
vt 0.250000 0.500000
vt 0.250000 0.500000
vt 0.250000 0.500000
vt 0.250000 0.500000
vt 0.250000 0.500000
vt 0.250000 0.500000
vt 0.250000 0.500000
vt 0.250000 0.500000
vt 0.250000 0.500000
vt 0.250000 0.500000
vt 0.250000 0.500000
vt 0.250000 0.500000
vt 0.250000 0.500000
vt 0.250000 0.500000
vt 0.250000 0.500000
vt 0.250000 0.500000
vt 0.250000 0.500000
vt 0.250000 0.500000
vt 0.250000 0.500000
vt 0.250000 0.500000
vt 0.250000 0.500000
vt 0.250000 0.500000
vt 0.250000 0.500000
vt 0.250000 0.500000
vt 0.250000 0.500000
vt 0.250000 0.500000
vt 0.250000 0.500000
vt 0.250000 0.500000
vt 0.250000 0.500000
vt 0.250000 0.500000
vt 0.250000 0.500000
vt 0.250000 0.500000
vt 0.250000 0.500000
vt 0.250000 0.500000
vt 0.250000 0.500000
vt 0.250000 0.500000
vt 0.250000 0.500000
vt 0.250000 0.500000
vt 0.750000 0.500000
vt 0.750000 0.500000
vt 0.750000 0.500000
vn 0.8671 0.4981 0.0000
vn 0.8672 0.4980 -0.0001
vn 0.8670 0.4983 0.0000
vn 0.4674 0.3552 -0.8096
vn -0.4336 0.4981 0.7509
vn -0.4336 0.4979 0.7511
vn 0.4335 0.4985 -0.7508
vn 0.4335 0.4980 -0.7511
vn 0.4335 0.4979 -0.7511
vn -0.9875 0.1575 0.0000
vn -0.0000 0.8073 -0.5901
vn 0.9876 0.1573 0.0000
vn 0.9875 0.1574 -0.0000
vn 0.9875 0.1573 -0.0001
vn 0.9876 0.1573 -0.0001
vn 0.0000 0.2053 -0.9787
vn -0.0001 0.2052 -0.9787
vn -0.0000 0.2054 -0.9787
vn -0.8946 0.4469 0.0000
vn -0.4937 0.1574 0.8553
vn -0.4938 0.1574 0.8552
vn 0.8476 0.2051 0.4893
vn 0.8476 0.2052 0.4894
vn -0.4336 0.4981 -0.7509
vn -0.4337 0.4979 -0.7510
vn 0.8476 0.2052 -0.4893
vn 0.8476 0.2052 -0.4894
vn 0.8477 0.2052 -0.4891
vn 0.8475 0.2052 -0.4894
vn 0.4935 0.1575 -0.8554
vn 0.4936 0.1576 -0.8553
vn 0.4943 0.1577 -0.8549
vn 0.4937 0.1574 -0.8552
vn 0.4936 0.1574 0.8553
vn -0.8475 0.2053 -0.4894
vn -0.8475 0.2054 -0.4895
vn -0.0000 1.0000 0.0000
vn 0.8155 -0.1411 -0.5612
vn 0.5999 0.7212 0.3464
vn 0.0000 -1.0000 -0.0000
vn 0.0000 0.3548 0.9349
vn -0.4938 0.1574 -0.8552
vn -0.4941 0.1574 -0.8550
vn -0.8476 0.2052 0.4893
vn -0.8477 0.2052 0.4893
vn 0.4336 0.4981 0.7509
vn 0.4338 0.4980 0.7509
vn -0.4939 0.1574 0.8552
vn 0.4941 0.1572 -0.8551
vn 0.4937 0.1573 0.8553
vn 0.4937 0.1574 0.8552
vn -0.8476 0.2052 -0.4894
vn -0.8320 0.2774 -0.4805
vn -0.4942 0.1575 -0.8550
vn -0.4937 0.1575 -0.8552
vn -0.4937 0.1575 -0.8553
vn -0.0000 0.2052 0.9787
usemtl mat_1
s 1
f 1/1/1 2/2/1 3/3/1
f 4/4/2 5/5/2 6/6/2
f 7/7/3 8/8/3 9/9/3
f 10/10/4 11/11/4 12/12/4
f 13/13/5 14/14/5 15/15/5
f 16/16/6 17/17/6 18/18/6
f 19/19/7 20/20/7 21/21/7
f 22/22/8 23/23/8 24/24/8
f 25/25/9 26/26/9 27/27/9
f 28/28/10 29/29/10 30/30/10
f 31/31/10 32/32/10 33/33/10
f 34/34/10 35/35/10 36/36/10
f 37/37/11 38/38/11 39/39/11
f 40/40/12 41/41/12 42/42/12
f 43/43/12 44/44/12 45/45/12
f 46/46/13 47/47/13 48/48/13
f 49/49/13 50/50/13 51/51/13
f 52/52/14 53/53/14 54/54/15
f 55/55/16 56/56/16 57/57/16
f 58/58/17 59/59/17 60/60/17
f 61/61/18 62/62/18 63/63/18
f 64/64/19 65/65/19 66/66/19
f 67/67/20 68/68/20 69/69/20
f 70/70/21 71/71/21 72/72/21
f 73/73/22 74/74/22 75/75/22
f 76/76/23 77/77/23 78/78/23
f 79/79/24 80/80/24 81/81/24
f 82/82/25 83/83/25 84/84/25
f 85/85/24 86/86/24 87/87/24
f 88/88/26 89/89/26 90/90/26
f 91/91/27 92/92/27 93/93/27
f 94/94/28 95/95/28 96/96/28
f 97/97/29 98/98/29 99/99/29
f 100/100/27 101/101/27 102/102/27
f 103/103/30 104/104/30 105/105/30
f 106/106/31 107/107/31 108/108/31
f 109/109/32 110/110/32 111/111/32
f 112/112/33 113/113/33 114/114/33
f 115/115/34 116/116/34 117/117/34
f 118/118/35 119/119/35 120/120/35
f 121/121/36 122/122/36 123/123/36
f 124/124/37 125/125/37 126/126/37
f 127/127/37 128/128/37 129/129/37
f 130/130/37 131/131/37 132/132/37
f 133/133/37 134/134/37 135/135/37
f 136/136/37 137/137/37 138/138/37
f 139/139/37 140/140/37 141/141/37
f 142/142/37 143/143/37 144/144/37
f 145/145/37 146/146/37 147/147/37
f 148/148/37 149/149/37 150/150/37
f 151/151/37 152/152/37 153/153/37
f 154/154/37 155/155/37 156/156/37
f 157/157/37 158/158/37 159/159/37
f 160/160/37 161/161/37 162/162/37
f 163/163/37 164/164/37 165/165/37
f 166/166/37 167/167/37 168/168/37
f 169/169/37 170/170/37 171/171/37
f 172/172/38 173/173/38 174/174/38
f 175/175/39 176/176/39 177/177/39
f 178/178/40 179/179/40 180/180/40
f 181/181/40 182/182/40 183/183/40
f 184/184/40 185/185/40 186/186/40
f 187/187/40 188/188/40 189/189/40
f 190/190/40 191/191/40 192/192/40
f 193/193/40 194/194/40 195/195/40
f 196/196/40 197/197/40 198/198/40
f 199/199/40 200/200/40 201/201/40
f 202/202/40 203/203/40 204/204/40
f 205/205/40 206/206/40 207/207/40
f 208/208/40 209/209/40 210/210/40
f 211/211/40 212/212/40 213/213/40
f 214/214/37 215/215/37 216/216/37
f 217/217/37 218/218/37 219/219/37
f 220/220/37 221/221/37 222/222/37
f 223/223/37 224/224/37 225/225/37
f 226/226/37 227/227/37 228/228/37
f 229/229/37 230/230/37 231/231/37
f 232/232/37 233/233/37 234/234/37
f 235/235/37 236/236/37 237/237/37
f 238/238/41 239/239/41 240/240/41
f 241/241/42 242/242/42 243/243/42
f 244/244/43 245/245/43 246/246/43
f 247/247/42 248/248/42 249/249/42
f 250/250/44 251/251/44 252/252/44
f 253/253/45 254/254/45 255/255/45
f 256/256/44 257/257/44 258/258/44
f 259/259/44 260/260/44 261/261/44
f 262/262/46 263/263/46 264/264/46
f 265/265/47 266/266/47 267/267/47
f 268/268/46 269/269/46 270/270/46
f 271/271/48 272/272/48 273/273/48
f 274/274/49 275/275/49 276/276/49
f 277/277/50 278/278/50 279/279/50
f 280/280/51 281/281/51 282/282/51
f 283/283/52 284/284/52 285/285/52
f 286/286/53 287/287/53 288/288/53
f 289/289/54 290/290/54 291/291/54
f 292/292/55 293/293/55 294/294/55
f 295/295/56 296/296/56 297/297/56
usemtl mat_2
f 298/298/57 299/299/57 300/300/57
